<svg xmlns="http://www.w3.org/2000/svg" width="73" height="73" viewBox="0 0 73 73" fill="none">
<path d="M37.7285 10.9753V68.1673L68.4375 62.0251V4.83301L37.7285 10.9753ZM63.1553 50.0371L49.8898 51.4002C49.8495 51.4101 49.808 51.4139 49.7666 51.4116C49.4534 51.4075 49.1534 51.2843 48.9278 51.0669C48.7022 50.8495 48.5679 50.5544 48.5522 50.2415C48.5365 49.9286 48.6406 49.6215 48.8433 49.3827C49.0461 49.1438 49.3321 48.9912 49.6434 48.9558L62.9089 47.6042C63.0694 47.5864 63.2319 47.6006 63.3869 47.646C63.5419 47.6914 63.6864 47.7671 63.812 47.8686C63.9376 47.9702 64.0419 48.0956 64.1187 48.2377C64.1956 48.3797 64.2436 48.5356 64.2598 48.6963C64.2761 48.857 64.2604 49.0193 64.2136 49.1739C64.1667 49.3285 64.0898 49.4723 63.987 49.597C63.8843 49.7216 63.758 49.8247 63.6152 49.9003C63.4724 49.9758 63.3161 50.0223 63.1553 50.0371ZM63.1553 36.7089L43.2559 38.7358H43.1327C42.8177 38.7368 42.5144 38.6165 42.2858 38.3997C42.0572 38.183 41.9209 37.8865 41.9052 37.5719C41.8895 37.2572 41.9956 36.9486 42.2014 36.7102C42.4073 36.4718 42.6971 36.3218 43.0107 36.2914L62.91 34.2646C63.0713 34.2451 63.2349 34.2587 63.3908 34.3045C63.5466 34.3502 63.6916 34.4271 63.8168 34.5306C63.9421 34.6341 64.045 34.7619 64.1193 34.9064C64.1936 35.0508 64.2378 35.2089 64.2491 35.371C64.2658 35.5307 64.2507 35.6923 64.2047 35.8462C64.1586 36.0001 64.0826 36.1434 63.9809 36.2678C63.8792 36.3922 63.7539 36.4952 63.6122 36.5709C63.4705 36.6466 63.3152 36.6935 63.1553 36.7089ZM63.1553 23.3568L43.2559 25.3962C43.2157 25.4061 43.1741 25.4099 43.1327 25.4076C42.8177 25.4086 42.5144 25.2883 42.2858 25.0715C42.0572 24.8548 41.9209 24.5583 41.9052 24.2437C41.8895 23.929 41.9956 23.6204 42.2014 23.382C42.4073 23.1436 42.6971 22.9936 43.0107 22.9632L62.91 20.9124C63.2339 20.8828 63.5563 20.9823 63.8071 21.1894C64.0579 21.3964 64.2168 21.6941 64.2491 22.0177C64.2671 22.1777 64.2529 22.3398 64.2074 22.4943C64.1618 22.6488 64.0859 22.7926 63.984 22.9174C63.8821 23.0421 63.7563 23.1453 63.614 23.2207C63.4717 23.2962 63.3157 23.3424 63.1553 23.3568ZM4.5625 4.83301V62.0251L35.2715 68.1673V10.9753L4.5625 4.83301ZM23.2345 51.6705C23.1685 51.6725 23.1025 51.6687 23.0372 51.6591L9.78314 49.5706C9.61948 49.5501 9.46161 49.4969 9.3189 49.4142C9.17618 49.3315 9.05152 49.221 8.95231 49.0892C8.8531 48.9575 8.78137 48.8071 8.74136 48.6471C8.70135 48.4871 8.69388 48.3207 8.7194 48.1577C8.74491 47.9948 8.8029 47.8386 8.8899 47.6985C8.97691 47.5584 9.09117 47.4371 9.22591 47.342C9.36065 47.2469 9.51312 47.1797 9.67428 47.1446C9.83544 47.1095 10.002 47.1072 10.1641 47.1376L23.4296 49.2387C23.733 49.2882 24.0066 49.45 24.1962 49.6921C24.3857 49.9341 24.4772 50.2386 24.4524 50.545C24.4277 50.8514 24.2886 51.1373 24.0627 51.3458C23.8369 51.5544 23.5408 51.6703 23.2334 51.6705H23.2345ZM29.8673 39.289C29.8012 39.2906 29.7352 39.2864 29.6699 39.2765L9.78314 36.1557C9.61796 36.1371 9.45826 36.0852 9.31366 36.0032C9.16906 35.9212 9.04255 35.8108 8.94176 35.6786C8.84096 35.5464 8.76795 35.3952 8.72714 35.234C8.68633 35.0729 8.67855 34.9052 8.70428 34.7409C8.73001 34.5767 8.78871 34.4194 8.87685 34.2785C8.96498 34.1375 9.08073 34.0159 9.21712 33.9208C9.35352 33.8258 9.50773 33.7594 9.67048 33.7255C9.83323 33.6917 10.0011 33.6911 10.1641 33.7239L30.0509 36.8446C30.3562 36.8925 30.6323 37.0535 30.8242 37.2957C31.0162 37.5378 31.1099 37.8434 31.0868 38.1515C31.0636 38.4597 30.9253 38.7478 30.6993 38.9586C30.4733 39.1694 30.1763 39.2873 29.8673 39.289ZM29.8673 25.8753C29.8057 25.8753 29.7441 25.8627 29.6699 25.8627L9.78314 22.718C9.62421 22.693 9.47177 22.6369 9.33452 22.553C9.19726 22.4691 9.07788 22.3589 8.98319 22.2288C8.8885 22.0988 8.82036 21.9513 8.78265 21.7949C8.74494 21.6385 8.73841 21.4762 8.76342 21.3173C8.78844 21.1584 8.84451 21.0059 8.92844 20.8687C9.01237 20.7314 9.12251 20.6121 9.25258 20.5174C9.38264 20.4227 9.53008 20.3545 9.68649 20.3168C9.84289 20.2791 10.0052 20.2726 10.1641 20.2976L30.0509 23.4309C30.3562 23.4787 30.6323 23.6397 30.8242 23.8819C31.0162 24.1241 31.1099 24.4296 31.0868 24.7378C31.0636 25.0459 30.9253 25.3341 30.6993 25.5449C30.4733 25.7556 30.1763 25.8736 29.8673 25.8753Z" fill="#8300FF"/>
</svg>