<svg width="228" height="145" viewBox="0 0 228 145" fill="none" xmlns="http://www.w3.org/2000/svg">
<g clip-path="url(#clip0_1_64)">
<path d="M48.5202 34.1466L57.1249 45.8928C57.1249 45.8928 64.4612 48.9778 73.0354 55.1719L70.9829 58.3759C70.9829 58.3759 56.8306 52.5808 53.2089 50.1322L46.5955 39.7642L48.5202 34.1466Z" fill="#A0616A"/>
<path d="M78.1807 60.8613C79.0019 59.6596 78.0269 57.5643 76.003 56.1813C73.9791 54.7982 71.6727 54.6512 70.8515 55.8529C70.0303 57.0546 71.0053 59.15 73.0292 60.533C75.0531 61.916 77.3595 62.063 78.1807 60.8613Z" fill="#A0616A"/>
<path d="M44.3143 24.119L47.1303 23.3203C47.1303 23.3203 48.7694 23.3234 49.6942 24.9335C50.619 26.5435 57.1665 40.8988 56.8561 41.4549C56.5458 42.011 56.1126 42.1339 56.6687 42.4442C57.2248 42.7545 57.7339 42.5972 57.3549 43.0623C56.9759 43.5273 57.4997 44.5489 57.4997 44.5489L50.2763 49.8783L44.3143 24.119Z" fill="#8300FF"/>
<path d="M33.3891 142.16L36.8246 142.16L38.4588 128.909L33.3884 128.909L33.3891 142.16Z" fill="#A0616A"/>
<path d="M45.1594 142.082C45.2663 142.262 45.3228 142.844 45.3228 143.053C45.3228 143.697 44.8007 144.219 44.1568 144.219H33.5176C33.0783 144.219 32.7222 143.863 32.7222 143.424V142.981C32.7222 142.981 32.1958 141.65 33.2794 140.009C33.2794 140.009 34.6262 141.294 36.6386 139.281L37.232 138.206L41.5277 141.348L43.9087 141.641C44.4296 141.705 44.8914 141.631 45.1594 142.082Z" fill="#2F2E41"/>
<path d="M45.8231 138.812L49.2111 139.381L53.0183 126.584L48.0179 125.744L45.8231 138.812Z" fill="#A0616A"/>
<path d="M57.4437 140.685C57.5193 140.881 57.4787 141.463 57.4439 141.67C57.3372 142.305 56.7359 142.733 56.1009 142.627L45.6087 140.864C45.1755 140.791 44.8833 140.381 44.9561 139.948L45.0295 139.511C45.0295 139.511 44.731 138.111 46.0715 136.672C46.0715 136.672 47.1867 138.162 49.5047 136.511L50.2681 135.549L53.9838 139.359L56.2834 140.043C56.7865 140.192 57.2542 140.196 57.4437 140.685Z" fill="#2F2E41"/>
<path d="M52.8655 70.8181C52.8655 70.8181 57.4813 76.2218 57.4813 81.1753C57.4813 86.1287 57.5938 101.689 57.5938 101.689C57.5938 101.689 54.8919 125.982 54.2165 128.008C53.541 130.034 53.2033 133.412 53.2033 133.412L46.6737 131.836C46.6737 131.836 45.7731 108.982 48.475 103.578L41.9454 85.1155L39.6938 137.352H32.1138C32.1138 137.352 28.2108 109.883 30.2372 102.678C30.2372 102.678 25.7341 75.2086 26.8599 73.6325C27.9857 72.0564 52.8655 70.8181 52.8655 70.8181Z" fill="#2F2E41"/>
<path d="M36.0914 17.0054L42.1706 17.4557L44.1971 20.8331C44.1971 20.8331 48.9254 22.8595 49.6008 25.7865C50.2763 28.7136 50.5015 62.9375 50.5015 62.9375L53.8788 67.8909L53.6537 72.1689L26.6348 73.5198V69.4067L24.1581 64.5136C24.1581 64.5136 26.86 25.3362 27.5354 25.1111C28.2109 24.8859 33.3895 21.2834 33.3895 21.2834L36.0914 17.0054Z" fill="#8300FF"/>
<path d="M38.8427 16.1677C43.0706 16.1677 46.4981 12.7402 46.4981 8.51232C46.4981 4.28439 43.0706 0.856979 38.8427 0.856979C34.6148 0.856979 31.1874 4.28439 31.1874 8.51232C31.1874 12.7402 34.6148 16.1677 38.8427 16.1677Z" fill="#A0616A"/>
<path d="M44.9576 2.35484C44.5681 1.25006 43.4874 0.579818 42.3162 0.605925C42.2666 0.607019 42.217 0.60656 42.1679 0.604542C41.5781 0.580427 41.012 0.378982 40.4336 0.260806C39.3558 0.0405344 38.2193 0.114281 37.1789 0.471983C36.8556 0.583175 36.5318 0.722996 36.1898 0.723034C35.8479 0.723082 35.4754 0.535573 35.392 0.20396C35.3722 0.504197 35.3524 0.804418 35.3327 1.10464C35.2214 0.861647 35.1102 0.618638 34.9989 0.375632L34.776 1.34471L34.0621 0.534808C34.1259 0.891786 33.9178 1.25158 33.636 1.47981C33.3542 1.70805 33.0062 1.8343 32.6726 1.9765C31.2327 2.59025 29.8807 3.67688 29.4659 5.18612C29.2037 6.13965 29.3408 7.15164 29.4798 8.13072C29.6025 8.99628 29.736 9.89175 30.2065 10.6285C30.5081 11.1009 30.9428 11.4983 31.1264 12.0278C31.2976 12.5213 31.2328 13.0864 31.4763 13.5485C31.7209 14.0127 32.2258 14.2754 32.7199 14.4517C33.214 14.6282 33.7393 14.7529 34.1649 15.0599C34.5904 15.3668 35.0842 16.2511 36.0114 16.2035L36.3106 15.6413C36.6184 15.3905 35.4792 15.5894 35.4673 15.1925C35.4555 14.7956 36.838 14.5504 36.6421 14.205C36.3416 13.6755 35.935 13.2146 35.5964 12.7085C35.2004 12.1166 34.889 11.4251 35.0256 10.7027C35.0788 10.4217 35.2103 10.1563 35.4106 9.95218C35.9881 9.36373 36.632 9.62238 37.2578 9.70655C37.6891 9.76462 38.2042 9.69758 38.4282 9.3244C38.6902 8.88781 38.3982 8.3324 38.4339 7.8245C38.4718 7.28631 38.8795 6.845 39.3232 6.53817C39.767 6.23135 40.2709 6.00781 40.6701 5.64491C41.0693 5.28199 41.3536 4.71502 41.1796 4.20436C43.0719 3.41655 43.3615 3.34204 45.3542 3.82247C45.2592 3.32417 45.1263 2.83321 44.9576 2.35484Z" fill="#2F2E41"/>
<path d="M12.6392 100.266V77.0295C12.6392 76.3922 12.9108 75.7822 13.3845 75.3558C13.8581 74.9295 14.4931 74.7233 15.1271 74.7901C20.9995 74.0001 26.5304 74.3758 31.5429 76.5211C32.1107 76.5211 32.5726 76.983 32.5726 77.5507V100.868C32.5726 101.436 32.1107 101.898 31.5429 101.898C26.0253 100.604 20.2057 100.941 14.2712 101.898C13.3713 101.898 12.6392 101.166 12.6392 100.266Z" fill="#E6E6E6"/>
<path d="M12.6392 102.335V78.8523C12.6392 77.6107 13.6493 76.6005 14.891 76.6005C20.5065 75.1312 26.0572 75.1287 31.5429 76.6005C32.1107 76.6005 32.5726 77.0624 32.5726 77.6302V100.709C32.5726 101.276 32.1121 101.738 31.5454 101.739C26.1365 100.798 20.3423 101.714 14.2712 103.967C13.3713 103.967 12.6392 103.234 12.6392 102.335Z" fill="#F2F2F2"/>
<path d="M25.6062 86.3046H20.3552C18.4694 86.3046 16.9352 84.7705 16.9352 82.8847C16.9352 80.9988 18.4694 79.4645 20.3552 79.4645H25.6062C27.4922 79.4645 29.0264 80.9988 29.0264 82.8847C29.0264 84.7705 27.4922 86.3046 25.6062 86.3046Z" fill="#E6E6E6"/>
<path d="M30.4188 40.1828L30.2181 52.3062C30.2181 52.3062 29.5766 61.7544 27.9836 72.3872L24.1863 72.6294C24.1863 72.6294 24.6535 56.0277 24.4833 51.6593L24.7518 41.9566L30.4188 40.1828Z" fill="#A0616A"/>
<path d="M26.4436 79.9019C27.8982 79.8525 29.0099 77.8264 28.9267 75.3765C28.8434 72.9266 27.5967 70.9806 26.142 71.03C24.6874 71.0795 23.5757 73.1056 23.659 75.5555C23.7422 78.0054 24.989 79.9514 26.4436 79.9019Z" fill="#A0616A"/>
<path d="M30.3598 24.7482L27.4347 24.8547C27.4347 24.8547 25.8761 25.3621 25.4916 27.1786C25.1071 28.995 22.4122 47.7936 22.8786 48.2272C23.345 48.6609 23.795 48.6445 23.3614 49.1109C22.9278 49.5773 22.3949 49.5843 22.8986 49.9101C23.4024 50.2359 23.2183 51.3691 23.2183 51.3691L31.3085 50.796L30.3598 24.7482Z" fill="#8300FF"/>
<path d="M223.351 133.062H145.524C145.072 133.062 144.625 132.993 144.195 132.857L144.149 132.839C119.779 120.728 98.8855 114.118 80.2735 112.63L80.2027 112.616C78.3616 112.034 77.1246 110.345 77.1246 108.414V4.41121C77.1246 2.99108 77.7818 1.69516 78.9273 0.855903C80.0731 0.0166499 81.5066 -0.218846 82.8612 0.209029L144.387 19.6699C144.755 19.7864 145.138 19.8454 145.524 19.8454H223.351C225.782 19.8454 227.759 21.8226 227.759 24.2527V128.655C227.759 131.085 225.782 133.062 223.351 133.062ZM144.41 132.257C144.771 132.368 145.146 132.425 145.524 132.425H223.351C225.43 132.425 227.121 130.734 227.121 128.655V24.2528C227.121 22.1741 225.43 20.483 223.351 20.483H145.524C145.073 20.483 144.626 20.414 144.195 20.2778L82.6688 0.816991C81.5103 0.450285 80.2841 0.652316 79.3042 1.37016C78.3242 2.08817 77.7622 3.19654 77.7622 4.41121V108.414C77.7622 110.054 78.805 111.49 80.3613 111.998C99.0406 113.497 119.992 120.124 144.41 132.257Z" fill="#3F3D56"/>
<path d="M147.602 128.34C168.822 120.831 192.496 121.692 217.645 127.591C220.803 128.331 223.83 125.954 223.83 122.711V27.6823C223.83 25.3746 222.256 23.3569 220.015 22.8088C193.484 16.321 168.703 15.1274 146.864 22.8367C145.264 23.4014 143.489 23.0954 142.139 22.0678C123.736 8.05917 104.902 1.03539 85.5052 3.12093C82.9677 3.39375 81.0538 5.55621 81.0538 8.10827V104.173C81.0538 106.746 83 108.896 85.5584 109.162C106.436 111.334 125.62 117.914 143.461 127.992C144.724 128.705 146.234 128.824 147.602 128.34Z" fill="#F2F2F2"/>
<path d="M146.921 123.011C145.475 123.011 144.052 122.614 142.798 121.835C127.814 112.529 111.49 107.093 94.2789 105.677C90.2439 105.345 87.083 101.903 87.083 97.8415V15.7861C87.083 11.5746 90.3491 8.12368 94.5188 7.9299C107.05 7.3456 122.265 12.9338 142.399 25.51C144.102 26.5736 146.173 26.8894 148.082 26.3776C167.217 21.2412 187.959 21.0912 211.494 25.9189C215.148 26.6685 217.8 29.9116 217.8 33.6305V113.724C217.8 116.141 216.713 118.386 214.818 119.883C212.908 121.391 210.451 121.932 208.077 121.367C185.812 116.068 166.694 116.45 149.628 122.538C148.742 122.854 147.827 123.011 146.921 123.011ZM96.3076 8.52634C95.7145 8.52634 95.1294 8.53973 94.5484 8.56681C90.7197 8.74472 87.7205 11.9157 87.7205 15.7861V97.8415C87.7205 101.574 90.6243 104.737 94.3312 105.041C111.644 106.466 128.064 111.934 143.134 121.293C145.009 122.458 147.298 122.693 149.414 121.938C166.599 115.807 185.836 115.418 208.224 120.747C210.408 121.266 212.667 120.77 214.423 119.383C216.164 118.007 217.163 115.945 217.163 113.724V33.6305C217.163 30.2129 214.725 27.2324 211.366 26.5434C187.93 21.7357 167.284 21.883 148.247 26.9934C146.168 27.5509 143.914 27.2077 142.061 26.0508C122.981 14.1326 108.369 8.52634 96.3076 8.52634Z" fill="white"/>
<path d="M145.473 26.8537L144.836 26.8596L145.723 122.865L146.36 122.859L145.473 26.8537Z" fill="white"/>
<path d="M93.298 20.5181L93.0978 21.1232L137.736 35.8931L137.936 35.288L93.298 20.5181Z" fill="#3F3D56"/>
<path d="M93.298 32.334L93.0978 32.9391L137.736 47.7091L137.936 47.1039L93.298 32.334Z" fill="#3F3D56"/>
<path d="M93.298 44.1499L93.0978 44.7551L137.736 59.525L137.936 58.9198L93.298 44.1499Z" fill="#3F3D56"/>
<path d="M93.298 55.9658L93.0978 56.5709L137.736 71.3408L137.936 70.7357L93.298 55.9658Z" fill="#3F3D56"/>
<path d="M209.716 35.9283H156.216V36.5658H209.716V35.9283Z" fill="#3F3D56"/>
<path d="M209.716 47.0878H156.216V47.7253H209.716V47.0878Z" fill="#3F3D56"/>
<path d="M209.716 58.2471H156.216V58.8846H209.716V58.2471Z" fill="#3F3D56"/>
<path d="M209.716 69.4068H156.216V70.0444H209.716V69.4068Z" fill="#3F3D56"/>
<path d="M209.716 80.5661H156.216V81.2037H209.716V80.5661Z" fill="#3F3D56"/>
<path d="M209.716 91.7258H156.216V92.3633H209.716V91.7258Z" fill="#3F3D56"/>
<path d="M17.5372 139.475C16.8786 139.516 16.5147 138.698 17.0129 138.221L17.0625 138.024C17.0559 138.008 17.0494 137.992 17.0428 137.977C16.3768 136.389 14.1197 136.4 13.4594 137.99C12.8733 139.402 12.1271 140.815 11.9434 142.308C11.861 142.967 11.8981 143.638 12.0443 144.284C10.671 141.285 9.94833 138.009 9.94833 134.715C9.94833 133.887 9.99363 133.059 10.0863 132.234C10.1625 131.559 10.2675 130.887 10.4034 130.222C11.1384 126.628 12.7299 123.204 15.0255 120.344C16.1291 119.741 17.0494 118.798 17.6053 117.667C17.805 117.26 17.9615 116.821 18.0356 116.374C17.91 116.391 17.562 114.478 17.6568 114.361C17.4817 114.095 17.1685 113.963 16.9773 113.704C16.0267 112.415 14.7169 112.64 14.0331 114.392C12.5725 115.129 12.5583 116.351 13.4546 117.527C14.0248 118.275 14.1031 119.288 14.6034 120.089C14.552 120.154 14.4984 120.218 14.447 120.284C13.5031 121.495 12.6867 122.796 11.9985 124.163C12.193 122.644 11.9058 120.813 11.4163 119.634C10.859 118.289 9.81452 117.157 8.89471 115.995C7.78986 114.599 5.52427 115.208 5.32962 116.978C5.32773 116.995 5.3259 117.012 5.3241 117.029C5.46072 117.106 5.59457 117.188 5.72531 117.275C6.47106 117.768 6.21333 118.924 5.3297 119.06L5.30969 119.063C5.35911 119.555 5.44352 120.043 5.56704 120.523C4.38703 125.086 6.93459 126.749 10.5722 126.823C10.6525 126.864 10.7307 126.906 10.811 126.945C10.4425 127.982 10.148 129.047 9.9298 130.126C9.73421 131.079 9.59831 132.042 9.52214 133.01C9.42742 134.231 9.43567 135.458 9.53862 136.677L9.53244 136.634C9.27097 135.291 8.54212 134.037 7.48385 133.169C5.90735 131.874 3.68006 131.397 1.9793 130.356C1.1606 129.855 0.111496 130.502 0.254381 131.451L0.261336 131.497C0.514574 131.6 0.761632 131.719 1.00046 131.853C1.13709 131.93 1.27093 132.012 1.40168 132.098C2.14743 132.592 1.8897 133.748 1.00607 133.884L0.98604 133.887C0.971632 133.889 0.959274 133.891 0.944884 133.893C1.37931 134.925 1.9846 135.882 2.74227 136.708C3.48009 140.691 6.64908 141.069 10.0389 139.909H10.041C10.4116 141.524 10.9531 143.101 11.649 144.604H17.3932C17.4138 144.54 17.4323 144.474 17.4509 144.41C16.9197 144.443 16.3844 144.412 15.8614 144.315C16.2876 143.792 16.7138 143.265 17.14 142.742C17.1503 142.732 17.1585 142.722 17.1667 142.711C17.3829 142.444 17.6012 142.178 17.8173 141.911L17.8175 141.91C17.831 141.089 17.7323 140.27 17.5372 139.475Z" fill="#F2F2F2"/>
<path d="M81.7851 144.621C81.7851 144.831 81.6161 145 81.4057 145H0.665222C0.454845 145 0.285889 144.831 0.285889 144.621C0.285889 144.41 0.454845 144.241 0.665222 144.241H81.4057C81.6161 144.241 81.7851 144.41 81.7851 144.621Z" fill="#CCCCCC"/>
<path d="M211.963 124.456C216.012 124.456 219.295 121.173 219.295 117.124C219.295 113.075 216.012 109.792 211.963 109.792C207.914 109.792 204.631 113.075 204.631 117.124C204.631 121.173 207.914 124.456 211.963 124.456Z" fill="#8300FF"/>
<path d="M215.396 116.848L210.847 114.221C210.635 114.098 210.369 114.252 210.369 114.497V116.805H209.005C208.829 116.805 208.686 116.948 208.686 117.124C208.686 117.3 208.829 117.443 209.005 117.443H210.369V119.751C210.369 119.996 210.635 120.15 210.847 120.027L215.396 117.4C215.609 117.277 215.609 116.971 215.396 116.848Z" fill="white"/>
<path d="M107.56 96.4575C107.846 93.1903 109.202 90.069 111.373 87.6128C113.488 85.2201 116.378 83.5787 119.496 82.9101C121.236 82.5368 123.038 82.464 124.801 82.7154C125.223 82.7756 125.211 83.4454 124.785 83.3845C121.786 82.9566 118.686 83.4795 115.991 84.8644C113.228 86.2839 111.018 88.5927 109.652 91.3769C108.871 92.969 108.384 94.7067 108.229 96.4733C108.192 96.9009 107.522 96.8877 107.56 96.4575Z" fill="white"/>
<path d="M124.059 80.029L129.211 82.5709C129.398 82.6634 129.429 82.9686 129.27 83.1002L124.392 87.1318C124.062 87.4047 123.598 86.9226 123.93 86.6475L128.808 82.6159L128.867 83.1452L123.714 80.6033C123.328 80.4124 123.675 79.8397 124.059 80.029Z" fill="white"/>
</g>
<defs>
<clipPath id="clip0_1_64">
<rect width="227.517" height="145" fill="white" transform="translate(0.241211)"/>
</clipPath>
</defs>
</svg>
